<?xml version="1.0" encoding="UTF-8" standalone="no"?>
<svg
   xmlns:dc="http://purl.org/dc/elements/1.1/"
   xmlns:cc="http://creativecommons.org/ns#"
   xmlns:rdf="http://www.w3.org/1999/02/22-rdf-syntax-ns#"
   xmlns:svg="http://www.w3.org/2000/svg"
   xmlns="http://www.w3.org/2000/svg"
   xmlns:sodipodi="http://sodipodi.sourceforge.net/DTD/sodipodi-0.dtd"
   xmlns:inkscape="http://www.inkscape.org/namespaces/inkscape"
   version="1"
   width="217.20143"
   height="181.77759"
   id="svg8"
   sodipodi:docname="archmerged-compact.svg"
   inkscape:version="0.92.2 5c3e80d, 2017-08-06"
   inkscape:export-filename="/home/erik/Desktop/archmerged-text-2-liner.png"
   inkscape:export-xdpi="96"
   inkscape:export-ydpi="96">
  <metadata
     id="metadata14">
    <rdf:RDF>
      <cc:Work
         rdf:about="">
        <dc:format>image/svg+xml</dc:format>
        <dc:type
           rdf:resource="http://purl.org/dc/dcmitype/StillImage" />
        <dc:title></dc:title>
      </cc:Work>
    </rdf:RDF>
  </metadata>
  <defs
     id="defs12" />
  <sodipodi:namedview
     pagecolor="#474747"
     bordercolor="#666666"
     borderopacity="1"
     objecttolerance="10"
     gridtolerance="10"
     guidetolerance="10"
     inkscape:pageopacity="0"
     inkscape:pageshadow="2"
     inkscape:window-width="1920"
     inkscape:window-height="1020"
     id="namedview10"
     showgrid="false"
     showguides="true"
     inkscape:guide-bbox="true"
     inkscape:zoom="3.6053333"
     inkscape:cx="39.061686"
     inkscape:cy="88.734509"
     inkscape:window-x="0"
     inkscape:window-y="30"
     inkscape:window-maximized="1"
     inkscape:current-layer="svg8"
     fit-margin-top="10"
     fit-margin-left="10"
     fit-margin-right="10"
     fit-margin-bottom="10">
    <sodipodi:guide
       position="331.29057,73.005678"
       orientation="0,1"
       id="guide831"
       inkscape:locked="false" />
  </sodipodi:namedview>
  <text
     xml:space="preserve"
     style="font-style:normal;font-variant:normal;font-weight:normal;font-stretch:normal;font-size:59.51913071px;line-height:1.25;font-family:'Final Frontier';-inkscape-font-specification:'Final Frontier';letter-spacing:0px;word-spacing:0px;fill:#6790eb;fill-opacity:1;stroke:none;stroke-width:0.30999541"
     x="11.389704"
     y="160.85138"
     id="text823"
     transform="scale(1.0101576,0.98994454)"><tspan
       sodipodi:role="line"
       id="tspan821"
       x="11.389704"
       y="160.85138"
       style="fill:#6790eb;fill-opacity:1;stroke-width:0.30999541">merged</tspan></text>
  <path
     d="m 186.19773,26.605499 v -9.237538 h -3.45077 v -1.236583 h 8.30226 v 1.236583 h -3.46535 v 9.237538 h -1.38614 m 6.29527,0 V 16.131378 h 2.08578 l 2.47901,7.416583 c 0.22908,0.690882 0.39541,1.207403 0.50047,1.550291 0.11891,-0.380825 0.30495,-0.941118 0.55737,-1.678692 l 2.50746,-7.288182 h 1.86473 v 10.474121 h -1.33581 v -8.76552 l -3.04367,8.76625 h -1.25045 l -3.02909,-8.916537 v 8.916537"
     font-weight="400"
     font-size="8.441"
     id="path6"
     inkscape:connector-curvature="0"
     style="font-weight:400;font-size:8.44099998px;font-family:'DejaVu Sans Mono';fill:#808080;stroke-width:0.72954869"
     sodipodi:nodetypes="cccccccccccccccccccccccc" />
  <path
     inkscape:connector-curvature="0"
     style="fill:#6790eb;fill-opacity:1;stroke:none;stroke-width:1.53524578;stroke-miterlimit:4;stroke-dasharray:none;stroke-opacity:1"
     d="m 65.454461,10.000093 v 0 c -0.0217,0 -0.0443,0.0106 -0.0728,0.0315 -0.16268,0.11894 -1.07127,2.09292 -2.24577,4.87904 -4.83734,11.474981 -9.97436,22.918337 -17.54938,39.093647 -0.64879,1.385377 -1.20163,2.561831 -1.68994,3.596354 3.48507,2.379214 10.33818,7.545402 13.57168,13.349397 -2.57989,-3.488148 -11.13945,-6.416762 -16.20375,-7.89871 -0.16922,0.33404 -0.32984,0.64741 -0.47737,0.927439 -0.39542,0.750592 -0.91585,1.756851 -1.5193,2.933842 3.5065,2.400518 10.2905,7.537344 13.50212,13.302072 -2.5866,-3.497218 -11.18299,-6.431577 -16.24216,-7.909826 -0.64847,1.283676 -1.2982,2.563745 -1.94824,3.839681 3.49182,2.385871 10.32344,7.542923 13.55017,13.334787 -2.60004,-3.5154 -11.27093,-6.461478 -16.31916,-7.932159 -3.23775,6.279269 -6.45968,12.39523 -9.57375,18.16972 -3.56281,6.606603 -5.53103,10.110093 -7.20458,12.824343 -1.26864,2.05753 -4.08498,6.80706 -4.71539,7.95209 -0.22388,0.40665 -0.31572,0.63665 -0.31683,0.79283 -4.799e-4,0.0568 0.0147,0.1032 0.0337,0.10272 0.20925,-0.004 0.78981,-0.33712 2.88431,-1.65465 7.86225,-4.94566 16.38233,-9.01324 24.3387,-11.61946 4.55377,-1.49165 9.0042,-2.60941 13.499,-3.38115 a 16.188258,34.067826 0 0 1 14.83909,-20.490397 16.188258,34.067826 0 0 1 14.73987,20.085347 c 0.069,0.01 0.13992,0.0199 0.20776,0.0298 7.1133,1.04075 15.04569,3.31836 21.893339,6.28632 3.42989,1.4866 7.15477,3.38155 9.8136,4.99243 2.12191,1.28558 6.0068,3.81382 8.06696,5.24982 0.56058,0.39075 0.87331,0.53476 0.87331,0.4022 0,-0.24314 -0.33261,-0.85438 -1.909,-3.50787 -4.02416,-6.77377 -7.80539,-13.32349 -11.74234,-20.339693 -1.78773,-3.18598 -2.95828,-5.24041 -3.86285,-6.779861 -1.38768,-2.36164 -2.34785,-4.12096 -4.628359,-8.480644 -3.2612,-6.234482 -8.85156,-17.34504 -11.13606,-22.132356 -0.68948,-1.444843 -2.54466,-5.194222 -3.15005,-6.366266 -1.51081,-2.926073 -4.17353,-8.668572 -6.05569,-13.146159 -5.89355,-13.319132 -7.63172,-17.347317 -10.52187,-24.384658 -1.73561,-4.2261 -2.50361,-5.99238 -2.66139,-6.12111 -0.0251,-0.0205 -0.0459,-0.0307 -0.0676,-0.0305 z"
     id="path4487-3-3" />
  <path
     d="m 80.412391,52.657386 -0.07771,51.671164 13.373019,-2.57677 0.0221,-29.296632 c 0.003,-4.36251 6.23333,-9.459604 14.05198,-9.377801 1.65895,-3.00214 4.77725,-10.675183 5.53801,-12.420024 -17.46558,-0.04172 -17.68809,5.020199 -20.7254,7.509439 -0.0327,-4.749433 -0.0106,-7.601057 -0.0106,-7.601057 z m 75.259639,6.783036 c -0.12925,-0.06053 -6.97446,-8.006795 -20.73685,-8.068966 -12.89039,-0.214321 -27.34892,4.782973 -27.58042,26.397561 0.11288,19.004279 13.88919,26.431103 27.65322,26.575893 14.73012,0.15297 20.59124,-9.21093 20.94299,-9.44243 -1.75793,-1.523974 -8.34055,-8.04688 -8.34055,-8.04688 0,0 -4.11219,5.854582 -12.08954,5.929022 -7.9798,0.07608 -14.91581,-6.167884 -15.01397,-14.878996 -0.10225,-8.71193 6.37648,-13.431098 15.07369,-13.812296 7.52988,-0.0016 11.8744,4.861503 11.8744,4.861503 z m 16.85615,-24.867043 -12.62535,2.967782 0.0941,67.304379 12.4372,-2.24547 0.1407,-31.673804 c 0.027,-3.321168 4.80506,-8.421534 12.7824,-8.259565 7.62806,0.07935 9.33363,5.084005 9.31236,5.716335 l 0.22005,36.667004 12.2646,-2.16776 0.0466,-38.880568 c 0.081,-3.741631 -8.19494,-11.642903 -21.49761,-11.699346 -6.32249,0.0098 -9.82362,1.441354 -11.60528,2.496602 -3.04794,2.355084 -6.5319,4.611188 -9.95532,7.490625 3.16493,-4.065568 5.82186,-6.877109 8.41744,-8.966336 l -0.0327,-18.749878 z"
     id="path2"
     inkscape:connector-curvature="0"
     style="fill:#ffffff;fill-rule:evenodd;stroke-width:0.81802166"
     sodipodi:nodetypes="cccccccccccccccccccccccccccccccccccc" />
  <flowRoot
     xml:space="preserve"
     id="flowRoot12"
     style="font-style:normal;font-weight:normal;font-size:40px;line-height:1.25;font-family:sans-serif;letter-spacing:0px;word-spacing:0px;fill:#000000;fill-opacity:1;stroke:none"
     transform="translate(10,10)"><flowRegion
       id="flowRegion14"><rect
         id="rect16"
         width="77.940094"
         height="91.808434"
         x="102.90311"
         y="21.426716" /></flowRegion><flowPara
       id="flowPara18" /></flowRoot></svg>
